<?xml version="1.0" standalone="no"?><!DOCTYPE svg PUBLIC "-//W3C//DTD SVG 1.1//EN" "http://www.w3.org/Graphics/SVG/1.1/DTD/svg11.dtd"><svg class="icon" width="200px" height="184.67px" viewBox="0 0 1109 1024" version="1.1" xmlns="http://www.w3.org/2000/svg"><path fill="#bfbfbf" d="M0 170.666667a170.666667 170.666667 0 0 1 170.666667-170.666667h768a170.666667 170.666667 0 0 1 170.666666 170.666667v128a170.666667 170.666667 0 0 1-170.666666 170.666666H170.666667a170.666667 170.666667 0 0 1-170.666667-170.666666V170.666667z m0 554.666666a170.666667 170.666667 0 0 1 170.666667-170.666666h768a170.666667 170.666667 0 0 1 170.666666 170.666666v128a170.666667 170.666667 0 0 1-170.666666 170.666667H170.666667a170.666667 170.666667 0 0 1-170.666667-170.666667v-128zM298.666667 234.666667a64 64 0 1 0-128 0 64 64 0 0 0 128 0z m0 554.666666a64 64 0 1 0-128 0 64 64 0 0 0 128 0z" /></svg>