<?xml version="1.0" standalone="no"?><!DOCTYPE svg PUBLIC "-//W3C//DTD SVG 1.1//EN" "http://www.w3.org/Graphics/SVG/1.1/DTD/svg11.dtd"><svg class="icon" width="200px" height="200.00px" viewBox="0 0 1024 1024" version="1.1" xmlns="http://www.w3.org/2000/svg"><path fill="#bfbfbf" d="M992 288c17.673 0 32 14.327 32 32v416c0 17.673-14.327 32-32 32H64c-17.673 0-32-14.327-32-32V320c0-17.673 14.327-32 32-32h928z m-16 48H80v384h896V336z"  /><path fill="#bfbfbf" d="M352 448c17.673 0 32 14.327 32 32v160c0 17.673-14.327 32-32 32H192c-17.673 0-32-14.327-32-32V480c0-17.673 14.327-32 32-32h160z m-16 48H208v128h128V496zM608 448c17.673 0 32 14.327 32 32v160c0 17.673-14.327 32-32 32H448c-17.673 0-32-14.327-32-32V480c0-17.673 14.327-32 32-32h160z m-16 48H464v128h128V496zM864 448c17.673 0 32 14.327 32 32v160c0 17.673-14.327 32-32 32H704c-17.673 0-32-14.327-32-32V480c0-17.673 14.327-32 32-32h160z m-16 48H720v128h128V496z"  /></svg>