<?xml version="1.0" standalone="no"?><!DOCTYPE svg PUBLIC "-//W3C//DTD SVG 1.1//EN" "http://www.w3.org/Graphics/SVG/1.1/DTD/svg11.dtd"><svg class="icon" width="200px" height="200.00px" viewBox="0 0 1024 1024" version="1.1" xmlns="http://www.w3.org/2000/svg"><path fill="#bfbfbf" d="M581.973333 577.92h-139.946666a55.68 55.68 0 0 1-55.68-55.68v-139.733333a55.893333 55.893333 0 0 1 55.68-55.893334h139.946666a55.893333 55.893333 0 0 1 55.68 55.893334v139.733333a55.68 55.68 0 0 1-55.68 55.68z m-132.693333-62.72h125.44v-125.653333h-125.44zM904.32 577.92h-139.733333a55.893333 55.893333 0 0 1-55.893334-55.68v-139.733333a56.106667 56.106667 0 0 1 55.893334-55.893334h139.733333A55.893333 55.893333 0 0 1 960 382.506667v139.733333a55.68 55.68 0 0 1-55.68 55.68z m-132.693333-62.72h125.653333v-125.653333h-125.653333zM282.453333 697.386667h-185.6a31.573333 31.573333 0 1 1 0-62.933334h185.6a31.573333 31.573333 0 1 1 0 62.933334z"  /><path fill="#bfbfbf" d="M64 326.613333m32.426667 0l186.453333 0q32.426667 0 32.426667 32.426667l0 186.453333q0 32.426667-32.426667 32.426667l-186.453333 0q-32.426667 0-32.426667-32.426667l0-186.453333q0-32.426667 32.426667-32.426667Z"  /><path fill="#bfbfbf" d="M604.8 697.386667h-185.6a31.573333 31.573333 0 1 1 0-62.933334h185.6a31.573333 31.573333 0 1 1 0 62.933334zM927.146667 697.386667h-185.6a31.573333 31.573333 0 1 1 0-62.933334h185.6a31.573333 31.573333 0 1 1 0 62.933334z"  /></svg>