<?xml version="1.0" standalone="no"?><!DOCTYPE svg PUBLIC "-//W3C//DTD SVG 1.1//EN" "http://www.w3.org/Graphics/SVG/1.1/DTD/svg11.dtd"><svg class="icon" width="600px" height="600.00px" viewBox="0 0 1024 1024" version="1.1" xmlns="http://www.w3.org/2000/svg"><path fill="#6B4400" d="M257.843 875.06h-82.739a69.99 69.99 0 0 1-69.837-69.94V436.48a69.94 69.94 0 0 1 69.837-69.888h99.635a33.997 33.997 0 0 1 33.946 35.226L291.84 842.496a33.997 33.997 0 0 1-33.894 32.563z m-57.19-440.68a27.648 27.648 0 0 0-27.597 27.546v317.696a27.7 27.7 0 0 0 27.597 27.597 25.6 25.6 0 0 0 25.6-24.525L238.54 460.8a25.6 25.6 0 0 0-25.6-26.47z m548.454 440.68H398.694a71.68 71.68 0 0 1-71.68-74.343l14.03-365.261a71.68 71.68 0 0 1 71.68-68.864h17.356a10.24 10.24 0 0 0 9.523-6.707l54.784-153.6a116.02 116.02 0 0 1 224.051 55.45l-13.363 93.286a10.24 10.24 0 0 0 10.24 11.571h101.581a101.94 101.94 0 0 1 101.837 101.171 6.246 6.246 0 0 1 0 1.383l-0.666 6.144v1.126l-66.56 300.083a7.885 7.885 0 0 0 0 1.536 101.94 101.94 0 0 1-101.734 97.024zM397.568 732.876a71.68 71.68 0 0 0 71.68 74.342h280.013a34.1 34.1 0 0 0 34.099-34.099l0.768-6.81v-1.126l66.56-298.035a9.626 9.626 0 0 0 0-3.635 34.15 34.15 0 0 0-33.69-29.133H637.184a10.24 10.24 0 0 1-10.24-11.571l24.371-170.65a48.077 48.077 0 0 0-47.718-54.989 48.23 48.23 0 0 0-45.363 32l-70.708 198.451a10.24 10.24 0 0 1-9.574 6.759 71.68 71.68 0 0 0-71.68 68.813z m-2.867 74.342"  /></svg>