<?xml version="1.0" standalone="no"?><!DOCTYPE svg PUBLIC "-//W3C//DTD SVG 1.1//EN" "http://www.w3.org/Graphics/SVG/1.1/DTD/svg11.dtd"><svg class="icon" width="200px" height="200.00px" viewBox="0 0 1024 1024" version="1.1" xmlns="http://www.w3.org/2000/svg"><path fill="#cdcdcd" d="M912.384 601.088c0 20.992-9.216 37.888-27.136 50.176-15.36 10.752-33.792 16.384-54.272 16.384-18.944 0-35.328-4.608-49.152-14.336-16.384-11.264-25.088-26.112-25.088-45.568 0-13.824 7.168-22.016 20.48-22.016 7.68 0 13.312 6.144 16.384 17.92 4.608 17.408 16.384 25.088 37.376 25.088 9.728 0 19.968-2.56 28.672-7.168 9.216-5.12 13.312-11.776 13.312-20.48 0-10.752-4.096-18.944-11.776-25.088-4.608-3.584-15.872-8.192-42.496-8.192-20.992 0-23.04-13.312-23.04-18.944 0-6.656 3.072-17.408 22.528-18.944 16.384-1.024 28.16-2.56 35.328-5.12 14.848-5.12 16.384-14.336 16.384-20.48 0-4.608-1.024-11.264-12.288-16.384-7.168-3.584-15.872-5.12-26.112-5.12-16.384 0-26.112 6.656-31.232 21.504-3.584 10.752-9.216 15.872-16.896 15.872-12.8 0-20.48-7.68-20.48-20.48 0-16.896 8.192-30.72 23.552-41.472 13.312-8.704 28.672-13.824 44.544-13.312 20.48 0 37.888 4.608 51.712 13.312 17.408 11.264 26.112 27.136 26.112 47.616 0 17.92-8.704 32.768-26.624 43.008 20.48 11.264 30.208 28.672 30.208 52.224z"  /><path fill="#cdcdcd" d="M947.2 867.84h-193.024c-6.144 0-11.776-2.56-16.384-6.656-4.096-4.096-6.656-10.24-6.656-16.384 0-12.8 10.24-23.04 23.04-23.04H947.2c16.896 0 31.232-13.824 31.232-31.232l0.512-357.376c0-16.896-13.824-31.232-30.72-31.232H757.76c-12.288 0-26.112-19.456-26.112-32.256s13.824-13.824 26.112-13.824h190.464c41.984 0 75.776 34.304 75.776 76.8v357.376c0 43.008-34.304 77.824-76.8 77.824zM611.328 0H412.672c-43.52 0-78.848 34.816-78.848 77.824l5.12 712.704c0 43.008 34.304 77.824 76.8 77.824h193.024c42.496 0 76.8-34.816 76.8-77.824l4.608-712.704c0-43.008-35.328-77.824-78.848-77.824z m28.16 790.016c0 17.408-13.824 31.232-31.232 31.232H415.744c-16.896 0-31.232-13.824-31.232-31.232l-3.584-712.192c0-17.408 14.336-31.232 31.744-31.232h198.144c17.408 0 31.744 13.824 31.744 31.232l-3.072 712.192z"  /><path fill="#cdcdcd" d="M534.016 111.104c-4.608 0-9.216 0.512-20.992 11.776-7.168 6.656-13.824 11.264-19.456 12.288-2.56 0.512-4.608 1.024-7.168 1.536-16.896 3.072-19.456 12.288-19.456 16.896 0 17.408 17.92 24.576 44.544 13.824v145.408c0 12.8 8.192 20.992 21.504 20.992 14.336 0 23.04-7.68 23.04-20.992V129.536c0.512-12.288-7.168-18.432-22.016-18.432zM269.824 821.76H76.8c-16.896 0-31.232-13.824-31.232-31.232L45.056 275.968c0-16.896 13.824-30.72 30.72-30.72H266.24c12.288 0 22.528-10.24 22.528-22.528s-10.24-22.528-22.528-22.528H75.776C33.792 200.192 0 233.984 0 275.968v514.048c0 43.008 34.304 77.824 76.8 77.824h193.024c12.8 0 23.04-10.24 23.04-23.04-0.512-12.8-10.752-23.04-23.04-23.04z"  /><path fill="#cdcdcd" d="M244.736 515.072c0 12.288-8.192 19.456-22.016 19.456H113.152c-22.016 0-24.576-13.824-24.576-19.968 0-7.68 5.632-17.92 18.432-33.28 8.704-10.24 20.48-22.016 35.328-35.328l36.864-32.256c15.36-13.312 23.04-26.112 23.04-37.888 0-8.192-3.072-14.336-9.728-18.944-6.144-4.096-14.336-6.144-24.064-6.144-10.24 0-18.432 2.56-25.6 8.704-7.168 5.632-11.776 12.8-13.824 22.528-3.072 13.824-8.704 20.48-17.408 20.48-12.8 0-20.48-7.68-20.48-20.992 0-17.92 7.68-33.792 22.016-48.128 14.848-14.336 33.28-21.504 55.296-21.504 20.48 0 37.888 5.12 51.712 15.872 15.872 11.776 23.552 27.648 23.552 48.128 0 20.992-12.288 41.984-36.352 62.976-12.288 10.752-25.088 21.504-37.376 32.768-9.216 8.192-16.896 16.896-24.064 24.576h76.8c13.824 0 22.016 6.656 22.016 18.944zM24.064 978.944h975.872c13.312 0 24.064 10.24 24.064 22.528 0 12.288-10.752 22.528-24.064 22.528H24.064c-13.312 0-24.064-10.24-24.064-22.528 0-12.288 10.752-22.528 24.064-22.528z"  /></svg>