<?xml version="1.0" standalone="no"?><!DOCTYPE svg PUBLIC "-//W3C//DTD SVG 1.1//EN" "http://www.w3.org/Graphics/SVG/1.1/DTD/svg11.dtd"><svg class="icon" width="200px" height="200.00px" viewBox="0 0 1024 1024" version="1.1" xmlns="http://www.w3.org/2000/svg"><path d="M542.117647 60.235294v454.415059l135.529412-113.603765 135.529412 113.603765V60.235294h-271.058824z m208.564706 330.872471l-78.095059-60.29553-72.493176 60.29553V105.652706h150.588235v285.455059z" fill="#FFC91F" /><path d="M868.773647 60.355765H155.497412a95.081412 95.081412 0 0 0-95.141647 95.141647v713.276235a95.081412 95.081412 0 0 0 95.141647 95.111529h713.276235a95.081412 95.081412 0 0 0 95.111529-95.111529V155.497412a95.081412 95.081412 0 0 0-95.111529-95.141647zM271.058824 120.470588v783.058824H180.916706a60.235294 60.235294 0 0 1-60.235294-60.235294L120.470588 180.705882a60.235294 60.235294 0 0 1 60.235294-60.235294h90.352942z m574.223058 783.058824h-512V120.470588h512a60.235294 60.235294 0 0 1 60.235294 60.235294v662.588236a60.235294 60.235294 0 0 1-60.235294 60.235294z" fill="#333333" /></svg>