<?xml version="1.0" standalone="no"?><!DOCTYPE svg PUBLIC "-//W3C//DTD SVG 1.1//EN" "http://www.w3.org/Graphics/SVG/1.1/DTD/svg11.dtd"><svg class="icon" width="200px" height="200.00px" viewBox="0 0 1024 1024" version="1.1" xmlns="http://www.w3.org/2000/svg"><path fill="#cdcdcd" d="M128 0h768a42.666667 42.666667 0 0 1 42.666667 42.666667v912.298666a42.666667 42.666667 0 0 1-61.738667 38.144l-345.856-172.885333a42.666667 42.666667 0 0 0-38.144 0l-345.856 172.885333A42.666667 42.666667 0 0 1 85.333333 954.965333V42.666667a42.666667 42.666667 0 0 1 42.666667-42.666667z m42.666667 85.333333v800.597334l284.074666-142.08a128 128 0 0 1 114.517334 0L853.333333 885.973333V85.333333H170.666667z m213.333333 128h256a42.666667 42.666667 0 0 1 0 85.333334H384a42.666667 42.666667 0 1 1 0-85.333334z m0 213.333334h256a42.666667 42.666667 0 0 1 0 85.333333H384a42.666667 42.666667 0 0 1 0-85.333333z"  /></svg>