<?xml version="1.0" standalone="no"?><!DOCTYPE svg PUBLIC "-//W3C//DTD SVG 1.1//EN" "http://www.w3.org/Graphics/SVG/1.1/DTD/svg11.dtd"><svg class="icon" width="200px" height="200.00px" viewBox="0 0 1024 1024" version="1.1" xmlns="http://www.w3.org/2000/svg"><path fill="#cdcdcd" d="M859.6 64.2H164.5c-55 0-99.6 44.6-99.6 99.6V860c0 55 44.6 99.6 99.6 99.6h695.1c55 0 99.6-44.6 99.6-99.6V163.8c0-55-44.6-99.6-99.6-99.6zM403.4 728.5h-115c-10.5 0-19.2-17.3-19.2-38.3 0-21 8.7-38.3 19.2-38.3h115c10.5 0 19.2 17.3 19.2 38.3 0 21-8.7 38.3-19.2 38.3z m134.2-178.8h-230c-21 0-38.3-17.3-38.3-38.3 0-21 17.3-38.3 38.3-38.3h230c21 0 38.3 17.3 38.3 38.3 0 20.9-17.3 38.3-38.3 38.3z m154.1-178.9H307.6c-21 0-38.3-17.3-38.3-38.3 0-21 17.3-38.3 38.3-38.3h384.1c21 0 38.3 17.3 38.3 38.3 0 21-17.3 38.3-38.3 38.3z"  /></svg>