<?xml version="1.0" standalone="no"?><!DOCTYPE svg PUBLIC "-//W3C//DTD SVG 1.1//EN" "http://www.w3.org/Graphics/SVG/1.1/DTD/svg11.dtd"><svg class="icon" width="200px" height="200.00px" viewBox="0 0 1024 1024" version="1.1" xmlns="http://www.w3.org/2000/svg"><path fill="#6B4400" d="M512 313.173333a138.666667 138.666667 0 1 1 138.666667-138.666666A139.093333 139.093333 0 0 1 512 313.173333z m0-192a53.333333 53.333333 0 1 0 0 106.666667 53.333333 53.333333 0 0 0 0-106.666667zM921.6 618.666667a298.666667 298.666667 0 0 1-250.88-130.56c-33.28-40.106667-52.053333-60.586667-82.773333-60.586667h-149.333334c-32 0-51.2 20.906667-85.333333 60.586667a311.04 311.04 0 0 1-259.413333 131.413333 42.666667 42.666667 0 1 1 0-85.333333c107.093333 0 149.333333-49.493333 194.56-101.973334 36.693333-42.666667 77.653333-90.026667 150.186666-90.026666h149.333334c72.106667 0 112.64 48.213333 148.053333 91.306666 42.666667 51.626667 85.333333 100.693333 185.6 100.693334a42.666667 42.666667 0 0 1 0 85.333333v-0.853333z"  /><path fill="#6B4400" d="M708.693333 969.813333c-3.413333 0.426667-6.826667 0.426667-10.24 0-16.213333-4.266667-395.52-100.266667-474.026666-122.453333a116.48 116.48 0 0 1-89.173334-125.013333 96 96 0 0 1 101.12-81.92h136.96v-89.173334a42.666667 42.666667 0 0 1 85.333334 0v130.56a42.666667 42.666667 0 0 1-42.666667 42.666667H236.373333c-15.36 0-16.213333 5.973333-16.64 8.533333-0.426667 2.56 5.546667 24.746667 28.16 31.146667 77.226667 21.76 469.333333 120.746667 469.333334 121.6a43.008 43.008 0 0 1-10.666667 85.333333l2.133333-1.28z"  /><path fill="#6B4400" d="M314.453333 969.813333a42.965333 42.965333 0 1 1-10.24-85.333333c3.84 0 394.24-99.84 469.333334-121.6 22.613333-6.4 29.013333-22.613333 27.733333-31.146667-1.28-8.533333 0-8.533333-16.213333-8.533333h-177.066667a42.666667 42.666667 0 0 1-42.666667-42.666667v-129.28a42.666667 42.666667 0 1 1 85.333334 0v87.893334h136.96a96 96 0 0 1 100.693333 81.92 115.626667 115.626667 0 0 1-89.173333 125.013333c-78.506667 22.186667-457.386667 118.186667-473.6 122.453333-3.626667 0.853333-7.381333 1.28-11.093334 1.28z"  /></svg>