<?xml version="1.0" standalone="no"?><!DOCTYPE svg PUBLIC "-//W3C//DTD SVG 1.1//EN" "http://www.w3.org/Graphics/SVG/1.1/DTD/svg11.dtd"><svg class="icon" width="200px" height="200.00px" viewBox="0 0 1024 1024" version="1.1" xmlns="http://www.w3.org/2000/svg"><path fill="#cdcdcd" d="M511.146667 302.506667a128 128 0 1 1 0-256 128 128 0 0 1 0 256z m0-192a64 64 0 1 0 0 128 64 64 0 0 0 0-128zM921.6 608a290.133333 290.133333 0 0 1-242.773333-128c-34.133333-42.666667-55.466667-64.426667-90.453334-64.426667h-149.333333c-36.693333 0-58.453333 23.04-93.866667 64.426667a301.653333 301.653333 0 0 1-250.88 128 32 32 0 1 1 0-64 238.506667 238.506667 0 0 0 203.52-105.386667c36.693333-42.666667 74.24-85.333333 142.08-85.333333h149.333334c66.986667 0 103.68 42.666667 139.52 85.333333 42.666667 51.2 85.333333 104.533333 193.706666 104.533334a32 32 0 0 1 0 64l-0.853333 0.853333z"  /><path fill="#cdcdcd" d="M709.12 957.44h-8.106667c-15.786667-4.266667-395.093333-100.266667-473.173333-122.453333a105.386667 105.386667 0 0 1-81.493333-113.066667 85.333333 85.333333 0 0 1 90.026666-72.96h146.773334v-97.706667a32 32 0 0 1 64 0v130.56a32 32 0 0 1-32 32H235.52c-16.213333 0-25.173333 5.546667-26.88 17.493334a42.666667 42.666667 0 0 0 35.84 42.666666c77.226667 21.76 469.333333 120.746667 469.333333 121.6a32 32 0 0 1-7.68 63.146667l2.986667-1.28z"  /><path fill="#cdcdcd" d="M315.306667 957.44a32 32 0 0 1-8.106667-63.146667c4.266667 0 394.24-99.84 471.893333-121.6a42.666667 42.666667 0 0 0 35.413334-42.666666c0-11.946667-10.666667-17.493333-26.88-17.493334h-179.626667a32.426667 32.426667 0 0 1-32-32v-129.28a32 32 0 0 1 64 0v98.56h147.626667a85.333333 85.333333 0 0 1 90.453333 72.96 105.386667 105.386667 0 0 1-81.493333 113.066667c-78.506667 22.186667-457.386667 118.186667-473.6 122.453333l-7.68-0.853333z"  /></svg>