<?xml version="1.0" standalone="no"?><!DOCTYPE svg PUBLIC "-//W3C//DTD SVG 1.1//EN" "http://www.w3.org/Graphics/SVG/1.1/DTD/svg11.dtd"><svg class="icon" width="200px" height="194.31px" viewBox="0 0 1054 1024" version="1.1" xmlns="http://www.w3.org/2000/svg"><path fill="#cdcdcd" d="M12.808447 313.314329l0-68.968563 110.349701 0 0-240.404705 88.673867 0 0 240.404705 95.570723 0 0 68.968563-95.570723 0 0 501.49998q31.528486-11.823182 63.549604-24.138997t65.520135-26.109527l0 64.042237q-80.791745 41.381138-166.017184 69.461196t-174.884571 41.87377l0-83.747541q68.968563-8.867387 123.158148-23.646364l0-519.234753-110.349701 0zM574.409603 1023.690528q-179.318264 6.896856-169.465612-163.554021l0-606.923355-78.821215 0 0-65.027502 78.821215 0 0-114.290762 87.688602 0 0 114.290762 165.524551 0 0-188.185651 87.688602 0 0 188.185651 267.992131 0 0 350.754406q3.941061 165.524551-152.716104 156.657165l-51.23379 0 0-60.101176 35.469547 0q85.718071 5.911591 79.80648-81.77701l0-300.505882-179.318264 0 0 579.335929-87.688602 0 0-579.335929-165.524551 0 0 617.761272q-6.896856 92.614927 105.423375 87.688602l300.505882 0q89.659132 3.941061 85.718071-78.821215l0-47.292729 68.968563 0 0 51.23379q9.852652 146.804513-150.745573 139.907656l-328.093307 0z" /></svg>