<?xml version="1.0" standalone="no"?><!DOCTYPE svg PUBLIC "-//W3C//DTD SVG 1.1//EN" "http://www.w3.org/Graphics/SVG/1.1/DTD/svg11.dtd"><svg class="icon" width="200px" height="199.61px" viewBox="0 0 1026 1024" version="1.1" xmlns="http://www.w3.org/2000/svg"><path fill="#6B4400" d="M520.089883 0.061867a511.999733 511.999733 0 1 0 0 1023.876266c280.526984-3.141607 506.270921-231.431682 506.270921-511.958666S800.616868 3.141873 520.089883 0.000267z m-182.58278 301.840629a60.984127 60.984127 0 1 1 60.984127 61.00466 60.984127 60.984127 0 0 1-60.984127-61.00466z m488.32475 565.037443C588.507092 1019.441324 307.281973 823.491315 425.040885 660.784843s263.628016-276.72831 167.839817-461.179627c-92.030592-177.285169-372.721843-67.493207-372.721843-67.493207s195.29294-164.061675 456.621217-75.398557 316.563059 350.710064 316.56306 350.710064 69.813479 306.994506-167.511283 459.516423z m0 0" /></svg>