<?xml version="1.0" standalone="no"?><!DOCTYPE svg PUBLIC "-//W3C//DTD SVG 1.1//EN" "http://www.w3.org/Graphics/SVG/1.1/DTD/svg11.dtd"><svg class="icon" width="200px" height="200.00px" viewBox="0 0 1024 1024" version="1.1" xmlns="http://www.w3.org/2000/svg"><path fill="#cdcdcd" d="M487.187692 83.101538c-23.630769 5.513846-43.323077 17.329231-61.44 37.021539-22.843077 24.812308-29.538462 41.353846-29.538461 76.8-0.393846 48.049231 21.267692 83.889231 65.772307 107.126154 23.630769 12.996923 76.406154 12.996923 100.036924 0 43.323077-22.843077 66.166154-59.076923 66.166153-105.156923 0-37.021538-9.058462-59.470769-33.870769-82.707693-31.113846-29.144615-71.286154-41.353846-107.126154-33.083077zM436.381538 328.861538c-36.233846 7.089231-91.372308 24.418462-115.790769 35.84-12.603077 5.907692-24.024615 14.966154-30.326154 24.418462C276.48 409.6 200.861538 630.153846 200.861538 650.24c0 28.356923 20.48 50.806154 46.473847 50.806154 6.695385 0 28.356923-4.332308 48.836923-9.452308 61.833846-16.147692 58.289231-15.753846 58.28923-4.332308 0 15.36-24.024615 35.446154-87.827692 74.043077-31.507692 18.904615-66.166154 42.535385-77.193846 52.381539-45.292308 40.96-40.96 94.916923 10.24 120.123077 17.723077 9.058462 24.024615 9.452308 101.612308 10.633846l82.707692 1.181538-14.966154-14.178461c-60.258462-58.683077-24.418462-127.606154 79.950769-153.206154 38.596923-9.452308 110.276923-18.510769 124.061539-16.147692 20.086154 4.332308 82.707692 22.449231 85.464615 25.206154 1.969231 1.575385-22.055385 6.695385-53.169231 11.815384-88.615385 14.178462-151.236923 27.569231-170.141538 36.233846-24.812308 11.815385-41.353846 31.507692-41.353846 50.018462 0 19.692308 11.027692 40.172308 27.175384 50.806154l13.39077 9.058461h165.80923c180.775385 0 204.012308-2.363077 237.489231-22.055384 22.055385-12.996923 30.72-30.72 27.569231-57.895385-4.332308-35.84-14.966154-48.049231-76.406154-89.403077-30.72-20.48-69.316923-45.686154-85.464615-55.926154-21.267692-12.996923-30.326154-21.267692-32.295385-28.750769-1.181538-5.513846-1.575385-11.027692-0.787692-12.209231 1.181538-0.787692 22.843077 3.544615 48.836923 10.24 25.6 6.301538 51.987692 11.815385 57.895385 11.815385 25.206154 0 46.08-22.843077 46.08-50.412308 0-9.846154-11.815385-49.624615-29.144616-100.036923-64.590769-185.895385-58.289231-176.443077-129.575384-199.68-26.387692-8.664615-63.015385-18.510769-81.132308-21.661538-39.384615-7.483077-109.883077-7.483077-146.904616-0.393847z m97.673847 74.83077c4.332308 2.756923 13.390769 15.753846 20.48 28.356923 12.996923 24.812308 33.870769 91.372308 31.507692 101.612307-0.787692 3.150769-11.815385-12.209231-24.812308-33.870769-24.418462-41.353846-36.627692-54.744615-50.412307-54.744615-11.815385 0-34.264615 25.993846-53.169231 62.227692-9.452308 17.723077-18.510769 33.083077-20.48 34.264616-3.150769 1.969231 3.544615-31.901538 14.178461-66.953847 9.452308-32.689231 29.932308-66.166154 45.292308-73.64923 13.390769-7.089231 22.843077-6.301538 37.415385 2.756923z" /></svg>