<?xml version="1.0" standalone="no"?><!DOCTYPE svg PUBLIC "-//W3C//DTD SVG 1.1//EN" "http://www.w3.org/Graphics/SVG/1.1/DTD/svg11.dtd"><svg class="icon" width="200px" height="200.00px" viewBox="0 0 1024 1024" version="1.1" xmlns="http://www.w3.org/2000/svg"><path fill="#6B4400" d="M876.672 446.816c-4.416-1.408-8.832-2.816-13.216-4.32-62.752-21.408-121.12-51.424-173.456-89.232-39.536-28.576-76.608-62.288-110.176-100.208-12.688-14.336-25.056-29.472-36.848-45.104 0.944-0.336 1.872-0.704 2.8-1.072 4.304-1.744 7.696-3.44 10.64-5.376 6.368-4.176 7.152-9.168 7.04-11.76-0.112-2.592-1.28-7.504-7.952-11.136-3.392-1.84-7.072-3.344-10.944-4.48-16.992-4.944-34.032-9.792-51.056-14.64l-12.688-3.616c-1.104-0.32-2.144-0.464-3.216-0.464l-0.288 0-0.512 0.032c-4.256 0.304-7.232 3.552-8.48 6.256l-0.64 1.392c-19.2 41.84-41.696 81.904-66.88 119.088-47.952 70.784-107.696 134.224-177.568 188.576-27.536 21.424-56.944 41.696-87.424 60.256-4.496 2.736-7.456 7.04-8.816 12.784-1.456 6.224 1.536 11.888 7.424 14.112 2.928 1.104 5.456 1.616 7.984 1.616 2.864 0 5.648-0.688 8.256-2.048 26.176-13.648 49.856-27.072 72.4-41.024 7.872-4.88 15.344-10.128 23.008-15.184l0 0.752 0 52.272 0 261.376 0 1.152c-0.016 1.712-0.016 3.424 0.16 5.12 0.224 2.144 0.528 5.088 1.408 8.016 2.352 7.904 8.096 12.448 15.728 12.448 1.6 0 3.296-0.208 5.024-0.624 5.104-1.216 9.408-3.696 12.944-5.952 6.048-3.872 11.344-8.432 16.48-12.848 3.44-2.96 5.088-6.608 5.072-11.168-0.064-21.648-0.064-43.296-0.048-64.944l0-11.136c5.664-0.288 15.136-0.544 27.648-0.544l54 0c12.496 0 21.952 0.256 27.632 0.528l0 4.112c0 8.528-0.016 17.056 0.016 25.584 0.016 3.728 0.304 8.624 2.4 13.552 2.8 6.544 8.096 10.144 14.896 10.144 0.784 0 1.616-0.048 2.464-0.16 5.264-0.624 9.552-2.832 13.408-5.12 7.472-4.432 13.728-9.84 20-15.456 2.64-2.368 3.936-5.568 3.648-9.008l0-0.08 0.016-1.472L468.96 557.888c3.616-0.992 7.136-2.208 10.56-4.208 6.272-3.664 8.24-8.192 8.784-11.344 0.544-3.136 0.224-8.048-4.4-13.536-2.08-2.464-4.432-4.656-7.024-6.544-10.4-7.52-20.864-14.976-31.312-22.432l-9.184-6.544-1.312-0.896c-1.536-1.024-3.344-1.568-5.2-1.568-2.912 0-5.616 1.296-7.44 3.568l-1.008 1.28-3.696 4.928c-3.696 4.912-7.392 9.824-11.056 14.784-18.464-0.032-36.912-0.048-55.376-0.048l-47.84 0.016c-12.368-6.448-24.096-12.688-35.808-18.944l-6.784-3.616-1.152-0.592c31.904-21.808 62.064-45.12 90.16-69.904-0.384 2.624-0.416 5.2-0.432 6.976-0.032 11.36 2.512 13.92 3.6 15.008l2.352 2.352 3.52 0.112 1.376 0 44.496 0 44.496 0 194.384 0.016c5.632 0 10.768-2.208 15.248-6.576 4.144-4.032 5.392-9.824 3.264-15.104-0.944-2.352-2.208-5.072-4.336-7.456-3.04-3.408-5.728-5.952-8.448-8.016-11.856-8.992-23.76-17.904-35.664-26.816l-11.248-8.432-1.264-0.912c-1.6-1.136-3.488-1.728-5.472-1.728-2.496 0-4.96 0.992-6.752 2.72l-1.072 1.04-8.448 8.432c-9.344 9.328-18.672 18.656-27.952 28.048-44.816-0.064-89.504-0.064-134.208-0.064l-28.24 0-27.664 0c11.136-10.176 22.112-20.464 32.56-31.072 21.024-21.376 41.056-44.048 59.536-67.392 21.904-27.664 42.272-57.12 60.656-87.664 38.256 62.56 85.568 118.688 140.752 166.944 47.264 41.328 101.408 77.904 160.944 108.736 0.432 0.224 0.896 0.432 1.344 0.624l1.488 0.624 1.632 0c4.336 0 6.448-2.976 8.144-5.36 1.008-1.424 2.496-3.552 4.432-5.68 1.568-1.712 3.568-3.344 6.688-5.44 3.312-2.224 6.784-4.288 10.32-6.16 10.976-5.808 22.624-10.112 33.568-13.904l1.584-0.592 5.088-1.968 0.624-5.984c0.016-3.472-2.144-6.592-5.52-7.936-0.656-0.256-1.184-0.464-1.712-0.64L876.672 446.816zM302.784 578.224c0.032-15.392 12.544-27.968 27.904-28.016 11.264-0.032 23.984-0.064 36.208-0.064l17.424 0.016c15.248 0.032 27.648 12.56 27.648 27.92l0 94.256c0 15.248-12.384 27.648-27.616 27.648l-53.488 0c-15.36 0-27.904-12.416-27.968-27.664C302.768 644.512 302.736 606.064 302.784 578.224z"  /><path fill="#6B4400" d="M815.712 553.056c5.52-3.344 7.328-7.552 7.872-10.512 0.544-2.96 0.368-7.552-3.584-12.688-2.224-2.896-4.72-5.344-7.424-7.296-10.832-7.856-21.744-15.616-32.64-23.392l-8.864-6.32c-0.48-0.352-0.992-0.656-1.536-0.96l-1.84-1.04-2.544-0.112c-2.864 0-5.664 1.376-7.488 3.696l-0.944 1.216-4.064 5.376c-3.584 4.752-7.184 9.504-10.672 14.336-24.144-0.032-48.08-0.048-72.016-0.048l-62.144 0.032c-0.832 0-1.328-0.144-1.808-0.384-11.36-5.344-22.752-10.656-34.144-15.968l-7.552-3.52-1.68-0.752-1.52-0.656-2.176-0.112c-5.024 0-8.944 4.016-8.944 9.152l0 1.664 0 371.856c0 1.936 0.048 3.888 0.192 5.824 0.336 4.224 1.232 7.616 2.816 10.688 2.88 5.552 7.984 8.736 14.016 8.736l0.192 0 0.672-0.016c1.664-0.08 3.36-0.32 4.976-0.72 4.592-1.152 9.04-3.312 13.216-6.4 3.056-2.272 6.032-4.64 9.008-7.008 2.032-1.616 4.048-3.232 6.096-4.8 3.728-2.864 5.616-6.832 5.616-11.808-0.064-80.112-0.064-160.24-0.064-240.352l0-32.96 0-46.928c5.664-0.304 15.136-0.56 27.648-0.56l85.28 0c12.528 0 22.016 0.304 27.616 0.64l0 113.376 0 17.728c0 20.24 0.016 40.48-0.048 60.736 0 2.256-0.288 4.528-0.816 6.608-0.88 3.472-2.848 5.408-6.368 6.304-2.048 0.512-4.336 0.8-6.624 0.8-10.096 0.048-20.176 0.064-30.272 0.064-9.856 0-19.712-0.032-29.568-0.08-5.104 0-9.408 1.872-13.296 5.712-3.184 3.152-3.84 6.48-3.824 8.72 0.016 2.256 0.704 5.6 3.952 8.768 2.96 2.88 6.304 4.768 9.936 5.6 12.672 2.896 25.344 5.824 38.016 8.8 3.584 0.848 6.832 2.464 9.616 4.816 2.48 2.08 3.776 4.448 4.096 7.44 0.096 0.944 0.144 1.888 0.208 2.832l0.128 2.112c0.768 10.064 7.664 16.976 17.584 17.584 1.264 0.08 2.528 0.128 3.776 0.128 11.024 0 20.928-3.12 29.456-9.28 2.512-1.808 4.832-3.904 7.12-5.984l0.736-0.672c8.32-7.552 14.48-16.912 18.32-27.808 3.264-9.264 4.784-19.312 4.784-31.632l0-151.024 0-44.688c0.832-0.24 1.6-0.496 2.352-0.768C809.568 556.064 812.72 554.88 815.712 553.056z"  /></svg>