<?xml version="1.0" standalone="no"?><!DOCTYPE svg PUBLIC "-//W3C//DTD SVG 1.1//EN" "http://www.w3.org/Graphics/SVG/1.1/DTD/svg11.dtd"><svg class="icon" width="200px" height="199.61px" viewBox="0 0 1026 1024" version="1.1" xmlns="http://www.w3.org/2000/svg"><path fill="#6B4400" d="M659.387867 579.091037c-5.274301 0-10.440391-2.144188-14.167671-5.871468-0.9218-0.9218-1.767452-1.963836-2.504893-3.043945-0.727421-1.102153-1.322583-2.262419-1.823561-3.466771a18.363867 18.363867 0 0 1-1.142231-3.749323 19.437965 19.437965 0 0 1 0-7.835303c0.234458-1.276493 0.641252-2.544971 1.142231-3.743311 0.500978-1.204352 1.096141-2.364618 1.823561-3.466771 0.73744-1.082114 1.583092-2.10411 2.504893-3.045949a20.185425 20.185425 0 0 1 14.167671-5.871468 20.179413 20.179413 0 0 1 14.161659 5.871468c0.923804 0.94184 1.769456 1.963836 2.488861 3.045949 0.721409 1.102153 1.338614 2.262419 1.839593 3.466771 0.500978 1.198341 0.907773 2.464814 1.142231 3.743311 0.266521 1.306552 0.408798 2.605088 0.408799 3.913644 0 1.322583-0.140274 2.621119-0.406795 3.921659a18.363867 18.363867 0 0 1-1.142231 3.747319c-0.500978 1.206356-1.122192 2.364618-1.841597 3.468775a20.139335 20.139335 0 0 1-2.488861 3.045949 20.179413 20.179413 0 0 1-14.159655 5.871468z m0 0M1017.926137 524.885166c-2.208313-1.653229-52.242035-38.435068-127.625268-58.145565 7.186035-86.120204-7.412477-159.41135-8.476556-164.563413a20.027115 20.027115 0 0 0-19.107319-15.991233c-4.047906-0.110215-95.125793-1.895703-185.418145 40.092305-14.949198-35.082521-36.110528-70.339382-63.163366-104.95499-43.645245-55.84908-86.879687-90.308384-88.695233-91.757213a20.063186 20.063186 0 0 0-24.876587 0c-1.815546 1.44883-45.047984 35.906129-88.697236 91.759217-27.052838 34.613605-48.21016 69.870466-63.163366 104.952986-90.292352-41.996023-181.354207-40.210536-185.416141-40.092305a20.041143 20.041143 0 0 0-19.107319 15.991233c-1.064078 5.174106-15.780822 79.022341-8.390388 165.589417-73.363288 19.842755-124.837824 55.107632-127.154348 56.710763-8.618834 5.973667-11.185847 17.574325-5.879483 26.615984 2.905675 4.947663 54.011491 90.763272 138.96742 153.159139-14.01337 17.448078-20.868759 36.547382-20.868759 57.909104 0 76.749902 103.223609 136.877339 234.998982 136.877338 61.94699 0 116.359264-11.680814 158.032658-33.840093 41.244556 21.159327 95.742998 33.840094 156.265205 33.840093 131.775374 0 234.998982-60.125432 234.998983-136.877338 0-20.415875-7.200063-39.256673-21.924822-57.135593 85.587162-62.466004 137.111796-148.970959 140.023483-153.93265 5.174106-8.807202 2.873613-20.109276-5.322395-26.207186zM513.001957 171.695342c38.12847 34.20681 150.654247 146.121393 150.654247 275.341777 0 6.763209-0.314614 13.666693-0.923805 20.524086-0.993941 11.021526 7.145957 20.760548 18.167484 21.746474 11.013511 0.993941 20.760548-7.139945 21.746473-18.161472 0.721409-8.045714 1.088125-16.155554 1.088125-24.109088 0-27.036806-4.288376-54.827084-12.696798-82.919953 61.275679-29.253135 125.05625-35.952219 154.269307-37.455154 7.366387 50.127906 22.528 203.553566-48.797307 300.218364-60.227632 81.613401-176.470669 103.602348-239.62602 109.479828 20.995006-20.329706 49.456595-50.825268 75.820087-88.783406 6.318341-9.08775 4.063937-21.572133-5.023813-27.890473-9.089753-6.316337-21.574137-4.061933-27.890473 5.025816-22.786505 32.806074-47.625018 59.921033-66.748368 78.817941V407.483867c0-11.061605-8.971523-20.039139-20.039139-20.039139s-20.039139 8.977534-20.039139 20.039139v296.022168c-47.576924-47.075945-130.623123-145.197589-130.623123-256.468916 0-129.228399 112.539804-241.150998 150.662262-275.341777zM180.696924 326.637965c29.166967 1.462857 92.791233 8.10984 154.269307 37.47319-8.406419 28.100885-12.696798 55.881143-12.696799 82.925964 0 72.649894 30.982513 150.700337 89.596995 225.706834 20.650333 26.425613 41.206481 48.053855 57.331976 63.678372-63.093229-5.799327-179.304204-27.702106-239.704172-109.541949C158.152892 530.199546 173.330536 376.719781 180.696924 326.637965zM48.007765 547.264877c18.668462-10.684869 51.835241-27.5458 92.821292-39.288736 8.290192 49.456595 25.064955 100.20371 56.424203 142.700712 24.107084 32.673816 55.121659 57.01135 88.280423 75.146771-7.781198-1.330599-15.428133-3.021902-22.94281-5.071906-107.295562-29.369362-186.872986-132.923616-214.583108-173.486841z m307.843257 311.702794c-54.137738 0-104.720532-11.296063-142.434192-31.79009-33.355147-18.135421-52.484509-41.831703-52.484509-65.016986 0-13.157699 4.516822-24.485824 14.434192-35.669667 23.576047 13.869088 49.204102 25.407624 76.641691 32.914285 24.672188 6.755194 50.496626 10.1378 77.236853 10.137801 19.381855 0 39.248658-1.777472 59.506223-5.330411a540.535734 540.535734 0 0 0 47.108008 8.843272c3.170192 24.547945 17.001205 47.091977 38.871921 66.123147-32.868196 12.993378-73.353268 19.78865-118.880187 19.788649z m509.220571-96.80908c0 23.187288-19.129362 46.881566-52.492525 65.01899-37.713659 20.494027-88.296454 31.79009-142.426176 31.79009s-104.712517-11.296063-142.426176-31.79009c-26.020822-14.143624-43.382732-31.669855-49.76119-49.697064 13.847045 0.9218 24.413683 1.094137 30.371319 1.094137 2.206309 0 3.781386-0.022043 4.665112-0.040079 0.877714 0.018035 2.450787 0.040078 4.673127 0.040079 15.750763 0 63.656329-1.212368 119.57755-14.364055 20.259569 3.554943 40.124368 5.330411 59.506223 5.330411 26.740227 0 52.562661-3.380603 77.236853-10.135797 26.974685-7.382419 52.195945-18.654434 75.445355-32.210912 10.612728 11.702857 15.630528 23.012947 15.630528 34.966294z m-101.658552-41.406873a242.098849 242.098849 0 0 1-22.944814 5.071906c33.160767-18.135421 64.173339-42.472955 88.282427-75.146771 31.585691-42.793581 48.36847-93.963523 56.604555-143.756775 41.783609 11.63272 74.71593 28.99463 92.921488 39.929989-27.451616 40.264642-107.199374 144.43009-214.863656 173.899647z m0 0" /></svg>