<?xml version="1.0" standalone="no"?><!DOCTYPE svg PUBLIC "-//W3C//DTD SVG 1.1//EN" "http://www.w3.org/Graphics/SVG/1.1/DTD/svg11.dtd"><svg class="icon" width="200px" height="200.00px" viewBox="0 0 1024 1024" version="1.1" xmlns="http://www.w3.org/2000/svg"><path fill="#cdcdcd" d="M17.2995 891.4616c250.4796-103.4557 394.7837-247.7599 432.896-432.9124L29.555712 458.5492l0-73.535488 432.896 0c0-8.1603 0-16.3205 0-24.4961 0-57.1515 0-130.6235 0-220.4324L86.723584 140.085212 86.723584 66.548736l853.552128 0 0 73.535488L552.307712 140.084224c0 27.2159-1.3763 69.3924-4.096 126.5439 0 54.4317 0 93.9039 0 118.3836l445.167616 0 0 73.535488L560.467968 458.547212c68.0643 215.1035 215.0881 352.5919 441.0716 412.4795-16.3359 27.2323-34.0316 55.8244-53.0883 85.7764-231.424-89.856-377.088-231.4404-436.992-424.7521C459.7156 711.765 314.0516 857.4136 74.4673 969.045 58.1315 944.5335 39.0758 918.6775 17.2995 891.4616z" /></svg>