<?xml version="1.0" standalone="no"?><!DOCTYPE svg PUBLIC "-//W3C//DTD SVG 1.1//EN" "http://www.w3.org/Graphics/SVG/1.1/DTD/svg11.dtd"><svg class="icon" width="200px" height="200.00px" viewBox="0 0 1024 1024" version="1.1" xmlns="http://www.w3.org/2000/svg"><path fill="#6B4400" d="M951.466667 446.577778c14.222222 0 28.444444-8.533333 32.711111-21.333334-41.244444-38.4-109.511111-92.444444-109.511111-92.444444l-59.733334 69.688889H543.288889c9.955556-89.6 21.333333-167.822222 24.177778-271.644445h320c14.222222 0 27.022222-12.8 29.866666-25.6C877.511111 68.266667 813.511111 14.222222 813.511111 14.222222l-58.311111 76.8H110.933333l15.644445 39.822222h325.688889c-1.422222 103.822222-5.688889 182.044444-14.222223 271.644445H48.355556l14.222222 44.088889h369.777778c-28.444444 223.288889-108.088889 416.711111-403.911112 560.355555l2.844445 2.844445c349.866667-130.844444 473.6-315.733333 507.733333-558.933334 32.711111 192 100.977778 418.133333 374.044445 557.511112 8.533333-51.2 36.977778-123.733333 81.066666-129.422223l1.422223 1.422223c-300.088889-116.622222-388.266667-256-426.666667-433.777778h382.577778z" /></svg>