<?xml version="1.0" standalone="no"?><!DOCTYPE svg PUBLIC "-//W3C//DTD SVG 1.1//EN" "http://www.w3.org/Graphics/SVG/1.1/DTD/svg11.dtd"><svg class="icon" width="200px" height="197.11px" viewBox="0 0 1039 1024" version="1.1" xmlns="http://www.w3.org/2000/svg"><path fill="#cdcdcd" d="M456.306627 126.395224H222.192716c-28.656716 0-53.156299 4.141851-73.514029 12.440836l-39.584478-47.501373c27.143642 3.775045 57.313433 5.654925 90.478806 5.654925H779.768358L852.151403 7.641791l83.692896 100.657672c4.52394 6.037015 6.78591 10.545672 6.78591 13.571821 0 3.010866-4.890746 4.52394-14.702806 4.52394H544.523463c-4.52394 117.622448-11.69194 209.614328-21.488717 275.960358h343.819463l68.99009-85.954866 82.56191 97.264717c4.52394 6.78591 6.78591 11.493254 6.78591 14.137313 0 2.64406-4.890746 3.958448-14.702806 3.958448H566.012179c38.453493 130.445373 96.89791 235.626985 175.302687 315.544836 78.404776 79.933134 171.160836 128.183403 278.222328 144.766089V912.429851c-27.143642-0.764179-48.448955 2.64406-63.900657 10.178865-15.451701 7.534806-29.971104 22.619701-43.542925 45.239403-5.272836 7.534806-10.178866 11.309851-14.702806 11.309851-10.545672 0-50.130149-26.761552-118.753433-80.29994-68.623284-53.538388-121.580896-114.978388-158.903403-184.350567s-63.518567-163.610746-78.603463-282.746269H519.641791c-20.357731 151.552-64.466149 269.357851-132.325254 353.432836-67.859104 84.059701-189.623403 160.034388-365.308179 227.893492l-9.04788-19.226746c154.562866-79.933134 260.126567-159.285493 316.675821-238.072358 56.549254-78.786866 92.740776-186.79594 108.574567-324.027224H139.630806c-30.918687 0-55.785075 4.141851-74.645015 12.440836l-39.584478-47.501373c27.143642 3.775045 56.931343 5.654925 89.347821 5.654925h326.854687c7.534806-72.383045 12.440836-164.374925 14.702806-275.960358z"  /></svg>