<?xml version="1.0" standalone="no"?><!DOCTYPE svg PUBLIC "-//W3C//DTD SVG 1.1//EN" "http://www.w3.org/Graphics/SVG/1.1/DTD/svg11.dtd"><svg class="icon" width="200px" height="200.00px" viewBox="0 0 1024 1024" version="1.1" xmlns="http://www.w3.org/2000/svg"><path fill="#cdcdcd" d="M628.78482 399.220401c-15.08865-70.430072-47.387263-132.662439-91.489714-189.08652-7.973602-10.1952-16.685008-19.813255-25.493627-30.211069-2.90312 3.072989-5.217838 5.39487-7.398504 7.838526-37.103036 41.680285-66.645886 88.166015-87.928609 139.757021-28.844955 69.894883-38.437427 141.970432-23.25975 216.603223 13.721513 67.506487 43.697221 127.490649 85.268013 181.924399 10.012028 13.104459 21.087271 25.39846 32.29759 38.816051 3.275603-3.356444 5.482875-5.490038 7.552-7.749498 34.336016-37.394678 61.949934-79.277578 82.859149-125.499296 33.726126-74.514087 44.848441-151.850453 27.593452-232.392837z m-37.185924 113.142873c-4.188392 33.509185-14.09195 67.686588-29.437449 101.590769-13.669324 30.216185-30.648021 58.595536-50.667984 84.73487-39.661302-52.283784-64.623833-105.649202-76.302826-163.104775-6.509251-32.006971-7.954159-64.539922-4.294816-96.697319 3.547803-31.176047 12.017708-63.148226 25.176402-95.0324 14.160511-34.32783 32.709983-66.840314 55.329143-97.039104 38.645159 51.924603 63.379493 104.83158 75.494415 161.378458 7.429203 34.666544 9.011234 69.713758 4.703115 104.169501zM272.120654 625.38028c-51.613518-19.464307-104.845906-27.13808-159.02076-27.13808-14.144138 0-28.347628 0.522909-42.609447 1.49505-8.820899 0.596588-17.607006 1.774413-27.13808 2.769067 1.551332 3.480264 2.496867 5.849218 3.628644 8.124028 39.302121 79.053474 98.496292 138.450259 176.974667 178.674378 57.487296 29.453822 118.804826 45.735647 182.837188 52.132335 16.86204 1.677199 33.874505 1.839905 51.271734 2.720971 0-2.254344 0.086981-2.741437-0.007163-3.176343-24.437575-104.242156-84.969207-177.514973-185.936783-215.601406z m-28.624944 125.804241c-35.119869-18.000979-66.176189-40.48404-92.305289-66.823941-13.151531-13.256932-25.28078-27.720342-36.308951-43.277666 52.592822 0.176009 99.103112 8.15575 142.121882 24.378223 67.867714 25.601074 114.697275 69.029166 141.975548 132.016733-57.392128-6.964622-108.370173-22.154579-155.48319-46.293349zM909.416312 598.110193c-45.843094 0-91.12644 5.848195-135.614678 19.352767-82.384335 25.013697-145.936767 73.200162-184.151113 151.87399-11.285021 23.225981-19.49603 47.555086-25.27771 74.132394 2.8847 0 5.299703 0.011256 7.559163 0.011256 1.12973 0 2.221598-0.00307 3.313466-0.011256 53.134151-0.547469 104.941074-9.382695 155.339927-25.960255 99.376335-32.691563 178.768523-91.064019 232.078683-182.424796 6.009877-10.29753 11.339256-20.992103 17.599843-32.649608-9.293667-0.919952-16.984836-1.814322-24.688285-2.429329-15.438621-1.24127-30.834262-1.895163-46.159296-1.895163z m-71.717392 116.296703c-34.017768 26.299993-74.560136 47.297212-120.498398 62.409399-30.664394 10.086729-61.916165 17.005302-93.384877 20.694321a264.015046 264.015046 0 0 1 4.366448-9.457396c31.287587-64.414055 82.991156-106.806561 158.061922-129.599683 38.383192-11.651364 78.217433-17.379832 121.734552-17.503653-19.958564 28.132734-43.50791 52.759621-70.279647 73.457012z"  /><path fill="#cdcdcd" d="M422.742117 689.584558c0.216941-1.069355 0.36532-1.339508 0.284479-1.488911-2.856048-5.152347-5.884011-10.220782-8.590656-15.454993-50.967812-98.476849-65.494667-201.672162-39.845496-309.976844 1.292436-5.457292 1.164522-9.985422-2.38942-14.485923-12.429077-15.739473-23.944342-32.277124-37.252439-47.218418-16.530488-18.566868-36.026518-33.981952-58.129932-48.244794-27.869744 83.121116-30.733978 165.270091-2.301416 247.356645 27.633361 79.806627 80.44824 140.299373 148.22488 189.513238zM659.504472 435.796434c5.720282 88.093361-13.476943 170.829713-57.175187 247.709685-0.799202 1.399883-1.306762 2.965541-1.956562 4.453428 73.510224-52.497655 128.674615-118.459972 153.837714-206.330252 21.946848-76.656891 17.693987-152.570861-8.266267-229.065046-40.258912 27.227108-73.448826 58.96188-97.41261 99.655698-1.313925 2.226714-0.784876 5.860475-0.352018 8.725732 3.797489 24.959461 9.699919 49.764404 11.32493 74.850755zM94.385671 435.286828c7.421017 45.335535 26.808576 85.73157 50.292429 124.702139 7.114025 11.80486 14.532995 19.461237 28.967752 18.033726 2.976798-0.290619 6.084579 0.684592 9.123798 1.11745 43.284829 6.114255 85.221964 16.809851 124.477013 36.637432 1.11745 0.567935 2.343371 0.927115 2.898003 1.144056-12.801561-20.518313-26.489304-40.658002-38.314631-61.84044-16.889669-30.266327-29.636994-62.219063-33.909297-97.069803-0.284479-2.326998-3.086291-5.217838-5.427616-6.274913-15.048741-6.822382-30.110785-13.680581-45.511544-19.623943-30.895661-11.914354-62.678528-20.877493-96.147803-27.17799 0 2.320858-0.154519 3.728928 0.025582 5.089925 1.122567 8.426927 2.159176 16.868179 3.526314 25.262361zM726.58424 595.373873c-4.840238 7.148817-9.992585 14.087856-15.902178 22.394032 9.485025-4.305049 17.45965-8.231475 25.657356-11.602245 40.529065-16.679891 82.919525-25.482371 126.393665-29.786397 2.429329-0.24457 5.632277-1.644453 6.857175-3.553943 19.130709-29.873378 37.095873-60.369949 48.15065-94.375437 7.68196-23.624047 12.618389-47.778166 14.648628-73.415057-3.3984 0.521886-5.747911 0.766456-8.05649 1.246387-42.411949 8.948813-83.33908 22.35924-123.035174 39.844474-11.005658 4.847401-19.151176 10.202363-18.033725 23.558555 0.054235 0.675382-0.312108 1.3743-0.454348 2.071172-9.449209 45.430702-30.487362 85.606727-56.225559 123.618459z"  /></svg>