<?xml version="1.0" standalone="no"?><!DOCTYPE svg PUBLIC "-//W3C//DTD SVG 1.1//EN" "http://www.w3.org/Graphics/SVG/1.1/DTD/svg11.dtd"><svg class="icon" width="200px" height="200.00px" viewBox="0 0 1024 1024" version="1.1" xmlns="http://www.w3.org/2000/svg"><path fill="#6B4400" d="M494.933333 352.512a133.76 133.76 0 0 0 134.741334-133.504c0-75.008-58.453333-133.674667-133.845334-133.674667A132.522667 132.522667 0 0 0 362.666667 217.941333c0 75.008 58.282667 134.4 132.224 134.570667z m-234.88 315.733333c1.066667 14.122667 7.808 23.936 21.077334 30.293334 26.496 12.544 52.992 25.173333 79.445333 37.888a18457.344 18457.344 0 0 0 87.168 41.514666c11.093333 5.333333 22.229333 10.752 33.92 13.226667 33.578667 7.466667 50.133333-13.226667 49.408-38.485333-0.554667-18.176-11.989333-31.232-27.605333-39.978667a14974.762667 14974.762667 0 0 0-149.333334-83.2c-5.12-2.901333-6.357333-5.973333-6.357333-11.221333 0.170667-30.336 0.170667-60.501333 0.170667-90.794667v-0.042667c0-1.152 0.128-2.346667 0.298666-3.626666l0.256-3.072 11.52 0.725333c3.84 0.213333 7.68 0.426667 11.52 0.725333v28.586667c0 18.858667-0.042667 37.76 0.213334 56.576 0 2.901333 1.621333 7.466667 4.010666 8.746667 18.432 10.325333 36.949333 20.565333 55.466667 30.848 25.728 14.293333 51.456 28.586667 77.098667 43.093333 4.394667 2.517333 7.253333 2.133333 11.477333-0.213333 41.770667-23.466667 83.541333-46.848 125.482667-70.101334 4.352-2.389333 6.4-5.12 6.4-10.538666 0-17.365333 0.298667-34.773333 0.64-52.181334l0.426666-25.941333a69.418667 69.418667 0 0 1 0.554667-8.533333h21.589333v25.173333c0.085333 25.002667 0.085333 49.792-0.170666 74.538667 0 2.730667-2.901333 6.4-5.632 7.808-7.893333 4.736-15.957333 9.216-23.978667 13.653333l-14.506667 8.149333c-15.274667 8.533333-30.506667 17.152-45.781333 25.770667-16.512 9.301333-33.066667 18.645333-49.792 27.989333 21.632 26.368 23.637333 54.144 8.362667 86.101334 1.877333-0.554667 3.626667-0.981333 5.248-1.408 3.114667-0.810667 5.802667-1.493333 8.192-2.56l37.76-18.005334 0.170666-0.085333 0.128-0.085333h0.085334a22173.866667 22173.866667 0 0 0 150.058666-71.936c12.16-5.802667 18.688-16.896 18.858667-30.72l0.341333-26.026667c0.469333-34.304 0.938667-68.565333 0.938667-102.912 0-23.466667-3.626667-46.336-12.714667-68.138667-22.357333-53.034667-61.738667-82.261333-120.234666-82.645333a27977.813333 27977.813333 0 0 0-247.04 0 119.893333 119.893333 0 0 0-32 5.12c-57.344 15.786667-91.136 68.821333-93.866667 125.482667-1.706667 33.493333-1.152 66.986667-0.64 100.608 0.170667 13.994667 0.426667 27.989333 0.426667 41.984 0.426667 2.389333 0.768 5.12 0.938666 7.808z m415.189334 134.613334c10.24 2.56 20.437333 5.034667 30.549333 7.765333 26.88 7.253333 44.672 23.594667 51.2 51.584 7.68 32.341333-17.237333 75.178667-67.370667 76.458667l-5.034666-1.109334a955.605333 955.605333 0 0 1-31.488-7.253333c-130.56-33.237333-261.162667-66.474667-391.594667-99.882667-25.984-6.741333-46.122667-30.336-47.957333-55.210666-2.133333-28.714667 11.989333-53.76 36.352-65.408 5.248-2.56 9.429333-2.901333 15.061333 0 35.968 18.688 71.936 37.12 107.946667 55.594666 28.032 14.378667 56.064 28.757333 84.053333 43.221334 15.616 7.978667 32.128 7.808 48.64 6.912 6.656-0.341333 13.226667-0.853333 19.754667-1.365334l13.312-1.024c18.346667-1.28 34.133333-9.813333 49.408-18.517333 13.098667-7.637333 25.429333-8.533333 39.978666-4.181333 15.573333 4.650667 31.402667 8.533333 47.189334 12.416z m97.962666-93.738667a15.530667 15.530667 0 0 0-8.746666 0.896c-8.064 4.010667-16.042667 8.192-24.064 12.373333-7.978667 4.181333-15.957333 8.362667-24.064 12.373334-18.944 9.216-37.973333 18.261333-57.813334 27.733333l-17.749333 8.405333c6.570667 1.706667 12.885333 3.498667 19.029333 5.205334 13.696 3.84 26.624 7.466667 39.68 10.24 29.568 6.144 54.613333 18.346667 69.717334 46.293333 0.896 1.450667 4.565333 2.56 6.528 2.176 28.885333-5.248 52.138667-34.133333 51.626666-63.744a63.872 63.872 0 0 0-54.186666-61.952z m-367.274666 203.221333c-22.357333 4.949333-44.757333 9.898667-67.242667 13.653334-41.045333 6.698667-75.946667-28.757333-71.552-69.589334l62.890667 16 118.4 30.122667-2.773334 0.725333c-4.693333 1.28-8.021333 2.133333-11.392 2.901334-9.429333 2.005333-18.858667 4.096-28.330666 6.186666z" /></svg>